<svg width="32" height="39" viewBox="0 0 32 39" fill="none" xmlns="http://www.w3.org/2000/svg">
<path d="M14.8898 38.1131C15.2142 38.3447 15.6029 38.4693 16.0015 38.4693C16.4001 38.4693 16.7887 38.3447 17.1131 38.1131C17.6958 37.701 31.3904 27.8129 31.3348 15.4696C31.3348 7.01515 24.4559 0.13623 16.0015 0.13623C7.54705 0.13623 0.668137 7.01515 0.668137 15.46C0.612554 27.8129 14.3071 37.701 14.8898 38.1131ZM16.0015 3.96956C22.3437 3.96956 27.5015 9.12731 27.5015 15.4791C27.5417 23.9853 19.0911 31.6232 16.0015 34.1283C12.9137 31.6213 4.46122 23.9815 4.50147 15.4696C4.50147 9.12731 9.65922 3.96956 16.0015 3.96956Z" fill="white"/>
</svg>
